<svg width="853" height="150" viewBox="0 0 853 150" fill="none" xmlns="http://www.w3.org/2000/svg">
<path fill-rule="evenodd" clip-rule="evenodd" d="M732.474 0C693.814 0 662.474 31.3401 662.474 70V80C662.474 118.66 693.814 150 732.474 150H776C814.66 150 846 118.66 846 80V70C846 31.3401 814.66 0 776 0H732.474ZM748.856 51.0221C735.049 51.0221 723.856 62.2149 723.856 76.0221C723.856 89.8292 735.049 101.022 748.856 101.022H761.398C775.205 101.022 786.398 89.8292 786.398 76.0221C786.398 62.2149 775.205 51.0221 761.398 51.0221H748.856Z" fill="white"/>
<path d="M431 150V0H497.39L564.61 74V0H631V150H564.61L497.39 71.5V150H431Z" fill="white"/>
<path d="M204 50V0H399V50L297.329 100H399V150H204V100L308.899 50H204Z" fill="white"/>
<path d="M173 0H0V150H173V110H71.7317V93H173V60H71.7317V40H173V0Z" fill="white"/>
</svg>
