<svg width="263" height="256" viewBox="0 0 263 256" fill="none" xmlns="http://www.w3.org/2000/svg">
<path fill-rule="evenodd" clip-rule="evenodd" d="M9.60515 0H246.532C251.837 0 256.138 4.29806 256.138 9.6V246.4C256.138 251.702 251.837 256 246.532 256H9.60515C4.30037 256 0 251.702 0 246.4V9.6C0 4.29806 4.30037 0 9.60515 0ZM142.385 136.196V115.2H51.2274V136.196H83.7723V229.681H109.681V136.196H142.385ZM152.714 227.213C156.892 229.342 161.834 230.939 167.538 232.003C173.243 233.067 179.255 233.6 185.576 233.6C191.736 233.6 197.587 233.014 203.131 231.843C208.675 230.673 213.536 228.743 217.713 226.055C221.891 223.367 225.199 219.855 227.636 215.517C230.073 211.178 231.292 205.816 231.292 199.429C231.292 194.798 230.595 190.741 229.203 187.254C227.811 183.768 225.802 180.667 223.177 177.952C220.553 175.238 217.406 172.803 213.736 170.648C210.067 168.492 205.93 166.456 201.324 164.54C197.948 163.156 194.922 161.812 192.244 160.508C189.566 159.204 187.289 157.873 185.415 156.516C183.54 155.159 182.094 153.722 181.076 152.205C180.059 150.688 179.55 148.971 179.55 147.055C179.55 145.299 180.005 143.715 180.916 142.305C181.826 140.895 183.111 139.683 184.772 138.672C186.433 137.661 188.468 136.876 190.879 136.317C193.288 135.759 195.967 135.479 198.913 135.479C201.056 135.479 203.318 135.639 205.702 135.958C208.086 136.278 210.483 136.77 212.893 137.435C215.303 138.1 217.647 138.938 219.923 139.95C222.2 140.961 224.302 142.132 226.231 143.462V119.591C222.32 118.101 218.048 116.996 213.415 116.278C208.782 115.559 203.466 115.2 197.466 115.2C191.361 115.2 185.576 115.852 180.112 117.156C174.649 118.46 169.841 120.496 165.69 123.264C161.538 126.032 158.258 129.558 155.848 133.842C153.437 138.127 152.232 143.25 152.232 149.211C152.232 156.823 154.441 163.316 158.861 168.691C163.28 174.067 169.989 178.618 178.987 182.344C182.523 183.781 185.816 185.191 188.87 186.576C191.923 187.959 194.561 189.397 196.783 190.886C199.006 192.377 200.761 194 202.046 195.756C203.332 197.513 203.975 199.509 203.975 201.745C203.975 203.395 203.573 204.925 202.769 206.335C201.965 207.746 200.747 208.97 199.113 210.008C197.48 211.045 195.445 211.858 193.008 212.443C190.571 213.028 187.718 213.321 184.451 213.321C178.88 213.321 173.363 212.35 167.899 210.407C162.437 208.465 157.374 205.55 152.714 201.665V227.213Z" fill="white"/>
</svg>
